<mxfile host="app.diagrams.net" modified="2023-10-14T12:00:49.231Z" agent="Mozilla/5.0 (Windows NT 10.0; Win64; x64) AppleWebKit/537.36 (KHTML, like Gecko) Chrome/117.0.0.0 Safari/537.36 Edg/117.0.2045.60" etag="wZnGDDbChVNRCGTRBvwF" version="22.0.4" type="github">
  <diagram name="PÃ¡gina-1" id="7nO_CJWwE60tr_Ib5Q_l">
    <mxGraphModel dx="1386" dy="751" grid="1" gridSize="10" guides="1" tooltips="1" connect="1" arrows="1" fold="1" page="1" pageScale="1" pageWidth="827" pageHeight="1169" math="0" shadow="0">
      <root>
        <mxCell id="0" />
        <mxCell id="1" parent="0" />
        <mxCell id="RWGStmXl-JUjxSm2xOCw-1" value="Persona" style="whiteSpace=wrap;html=1;align=center;fillStyle=auto;rounded=1;shadow=1;glass=0;strokeColor=default;labelBorderColor=none;labelBackgroundColor=none;fontSize=14;fontFamily=Comic Sans MS;fontStyle=1" vertex="1" parent="1">
          <mxGeometry x="200" y="300" width="100" height="40" as="geometry" />
        </mxCell>
        <mxCell id="RWGStmXl-JUjxSm2xOCw-2" value="Libro" style="whiteSpace=wrap;html=1;align=center;rounded=1;shadow=1;labelBorderColor=none;labelBackgroundColor=none;fontSize=14;fontFamily=Comic Sans MS;fontStyle=1" vertex="1" parent="1">
          <mxGeometry x="780" y="280" width="100" height="40" as="geometry" />
        </mxCell>
        <mxCell id="RWGStmXl-JUjxSm2xOCw-3" value="Pretamo" style="whiteSpace=wrap;html=1;align=center;rounded=1;shadow=1;labelBorderColor=none;labelBackgroundColor=none;fontSize=14;fontFamily=Comic Sans MS;fontStyle=1" vertex="1" parent="1">
          <mxGeometry x="470" y="530" width="100" height="40" as="geometry" />
        </mxCell>
        <mxCell id="RWGStmXl-JUjxSm2xOCw-4" value="DNI" style="ellipse;whiteSpace=wrap;html=1;align=center;fillColor=#f5f5f5;fontColor=#333333;strokeColor=#666666;rounded=1;fontFamily=Comic Sans MS;" vertex="1" parent="1">
          <mxGeometry x="110" y="205" width="100" height="40" as="geometry" />
        </mxCell>
        <mxCell id="RWGStmXl-JUjxSm2xOCw-5" value="Codigo Socio" style="ellipse;whiteSpace=wrap;html=1;align=center;fontStyle=5;fillColor=#e0e0e0;fontColor=#333333;strokeColor=#666666;rounded=1;fontFamily=Comic Sans MS;" vertex="1" parent="1">
          <mxGeometry x="170" y="150" width="100" height="40" as="geometry" />
        </mxCell>
        <mxCell id="RWGStmXl-JUjxSm2xOCw-6" value="telefono" style="ellipse;whiteSpace=wrap;html=1;align=center;fillColor=#f5f5f5;fontColor=#333333;strokeColor=#666666;rounded=1;fontFamily=Comic Sans MS;" vertex="1" parent="1">
          <mxGeometry x="90" y="390" width="100" height="40" as="geometry" />
        </mxCell>
        <mxCell id="RWGStmXl-JUjxSm2xOCw-7" value="Direccion" style="ellipse;whiteSpace=wrap;html=1;align=center;fillColor=#f5f5f5;fontColor=#333333;strokeColor=#666666;rounded=1;fontFamily=Comic Sans MS;" vertex="1" parent="1">
          <mxGeometry x="50" y="260" width="100" height="40" as="geometry" />
        </mxCell>
        <mxCell id="RWGStmXl-JUjxSm2xOCw-8" value="Apellido" style="ellipse;whiteSpace=wrap;html=1;align=center;fillColor=#f5f5f5;fontColor=#333333;strokeColor=#666666;rounded=1;fontFamily=Comic Sans MS;" vertex="1" parent="1">
          <mxGeometry x="60" y="330" width="100" height="40" as="geometry" />
        </mxCell>
        <mxCell id="RWGStmXl-JUjxSm2xOCw-9" value="Nombre" style="ellipse;whiteSpace=wrap;html=1;align=center;fillColor=#f5f5f5;fontColor=#333333;strokeColor=#666666;rounded=1;fontFamily=Comic Sans MS;" vertex="1" parent="1">
          <mxGeometry x="220" y="400" width="100" height="40" as="geometry" />
        </mxCell>
        <mxCell id="RWGStmXl-JUjxSm2xOCw-10" value="Titulo" style="ellipse;whiteSpace=wrap;html=1;align=center;fillColor=#f5f5f5;strokeColor=#666666;fontColor=#333333;rounded=1;fontFamily=Comic Sans MS;" vertex="1" parent="1">
          <mxGeometry x="900" y="360" width="100" height="40" as="geometry" />
        </mxCell>
        <mxCell id="RWGStmXl-JUjxSm2xOCw-11" value="Editorial" style="ellipse;whiteSpace=wrap;html=1;align=center;fillColor=#f5f5f5;strokeColor=#666666;fontColor=#333333;rounded=1;fontFamily=Comic Sans MS;" vertex="1" parent="1">
          <mxGeometry x="810" y="190" width="100" height="40" as="geometry" />
        </mxCell>
        <mxCell id="RWGStmXl-JUjxSm2xOCw-12" value="Anio de Edicion" style="ellipse;whiteSpace=wrap;html=1;align=center;fillStyle=auto;strokeColor=#666666;fillColor=#f5f5f5;fontColor=#333333;rounded=1;fontFamily=Comic Sans MS;" vertex="1" parent="1">
          <mxGeometry x="860" y="410" width="100" height="40" as="geometry" />
        </mxCell>
        <mxCell id="RWGStmXl-JUjxSm2xOCw-13" value="Autor" style="ellipse;whiteSpace=wrap;html=1;align=center;fillColor=#f5f5f5;strokeColor=#666666;fontColor=#333333;rounded=1;fontFamily=Comic Sans MS;" vertex="1" parent="1">
          <mxGeometry x="890" y="300" width="100" height="40" as="geometry" />
        </mxCell>
        <mxCell id="RWGStmXl-JUjxSm2xOCw-14" value="ISBN" style="ellipse;whiteSpace=wrap;html=1;align=center;fontStyle=5;fillColor=#e0e0e0;strokeColor=#666666;fontColor=#333333;rounded=1;fontFamily=Comic Sans MS;" vertex="1" parent="1">
          <mxGeometry x="680" y="185" width="100" height="40" as="geometry" />
        </mxCell>
        <mxCell id="RWGStmXl-JUjxSm2xOCw-15" value="Anio Escritura" style="ellipse;whiteSpace=wrap;html=1;align=center;fillColor=#f5f5f5;strokeColor=#666666;fontColor=#333333;rounded=1;fontFamily=Comic Sans MS;" vertex="1" parent="1">
          <mxGeometry x="900" y="240" width="100" height="40" as="geometry" />
        </mxCell>
        <mxCell id="RWGStmXl-JUjxSm2xOCw-16" value="Fecha Inicio Prestamo" style="ellipse;whiteSpace=wrap;html=1;align=center;fillColor=#f5f5f5;strokeColor=#666666;fontColor=#333333;rounded=1;fontFamily=Comic Sans MS;" vertex="1" parent="1">
          <mxGeometry x="360" y="650" width="140" height="30" as="geometry" />
        </mxCell>
        <mxCell id="RWGStmXl-JUjxSm2xOCw-17" value="Estado&amp;nbsp;" style="ellipse;whiteSpace=wrap;html=1;align=center;fillColor=#f5f5f5;fontColor=#333333;strokeColor=#666666;rounded=1;fontFamily=Comic Sans MS;" vertex="1" parent="1">
          <mxGeometry x="490" y="110" width="100" height="40" as="geometry" />
        </mxCell>
        <mxCell id="RWGStmXl-JUjxSm2xOCw-18" value="Fecha Final Prestamo&amp;nbsp;" style="ellipse;whiteSpace=wrap;html=1;align=center;fillColor=#f5f5f5;strokeColor=#666666;fontColor=#333333;rounded=1;fontFamily=Comic Sans MS;" vertex="1" parent="1">
          <mxGeometry x="520" y="640" width="140" height="40" as="geometry" />
        </mxCell>
        <mxCell id="RWGStmXl-JUjxSm2xOCw-19" value="Fecha real Entrega" style="ellipse;whiteSpace=wrap;html=1;align=center;fillColor=#f5f5f5;strokeColor=#666666;fontColor=#333333;rounded=1;fontFamily=Comic Sans MS;" vertex="1" parent="1">
          <mxGeometry x="600" y="580" width="123" height="40" as="geometry" />
        </mxCell>
        <mxCell id="RWGStmXl-JUjxSm2xOCw-20" value="" style="endArrow=none;html=1;rounded=1;entryX=1;entryY=1;entryDx=0;entryDy=0;" edge="1" parent="1" source="RWGStmXl-JUjxSm2xOCw-19" target="RWGStmXl-JUjxSm2xOCw-3">
          <mxGeometry relative="1" as="geometry">
            <mxPoint x="620" y="400" as="sourcePoint" />
            <mxPoint x="540" y="580" as="targetPoint" />
          </mxGeometry>
        </mxCell>
        <mxCell id="RWGStmXl-JUjxSm2xOCw-21" value="" style="endArrow=none;html=1;rounded=1;entryX=0.5;entryY=0;entryDx=0;entryDy=0;" edge="1" parent="1" source="RWGStmXl-JUjxSm2xOCw-57" target="RWGStmXl-JUjxSm2xOCw-25">
          <mxGeometry relative="1" as="geometry">
            <mxPoint x="540" y="530" as="sourcePoint" />
            <mxPoint x="390" y="410" as="targetPoint" />
          </mxGeometry>
        </mxCell>
        <mxCell id="RWGStmXl-JUjxSm2xOCw-22" value="Prestar" style="shape=rhombus;perimeter=rhombusPerimeter;whiteSpace=wrap;html=1;align=center;fillColor=#f6f1e5;fontColor=#333333;strokeColor=#d6b656;fontStyle=2;rounded=1;" vertex="1" parent="1">
          <mxGeometry x="563.5" y="390" width="120" height="60" as="geometry" />
        </mxCell>
        <mxCell id="RWGStmXl-JUjxSm2xOCw-23" value="" style="endArrow=none;html=1;rounded=1;entryX=0.5;entryY=1;entryDx=0;entryDy=0;" edge="1" parent="1" target="RWGStmXl-JUjxSm2xOCw-22">
          <mxGeometry relative="1" as="geometry">
            <mxPoint x="590" y="480" as="sourcePoint" />
            <mxPoint x="770" y="520" as="targetPoint" />
          </mxGeometry>
        </mxCell>
        <mxCell id="RWGStmXl-JUjxSm2xOCw-24" value="" style="endArrow=none;html=1;rounded=1;entryX=0;entryY=1;entryDx=0;entryDy=0;exitX=1;exitY=0;exitDx=0;exitDy=0;" edge="1" parent="1" source="RWGStmXl-JUjxSm2xOCw-55" target="RWGStmXl-JUjxSm2xOCw-2">
          <mxGeometry relative="1" as="geometry">
            <mxPoint x="610" y="520" as="sourcePoint" />
            <mxPoint x="770" y="520" as="targetPoint" />
          </mxGeometry>
        </mxCell>
        <mxCell id="RWGStmXl-JUjxSm2xOCw-25" value="Solicita" style="shape=rhombus;perimeter=rhombusPerimeter;whiteSpace=wrap;html=1;align=center;fillColor=#f6f1e5;fontColor=#333333;strokeColor=#d6b656;fontStyle=2;rounded=1;" vertex="1" parent="1">
          <mxGeometry x="360" y="400" width="120" height="60" as="geometry" />
        </mxCell>
        <mxCell id="RWGStmXl-JUjxSm2xOCw-26" value="" style="endArrow=none;html=1;rounded=1;exitX=0.5;exitY=1;exitDx=0;exitDy=0;entryX=0.25;entryY=0;entryDx=0;entryDy=0;" edge="1" parent="1" source="RWGStmXl-JUjxSm2xOCw-61" target="RWGStmXl-JUjxSm2xOCw-3">
          <mxGeometry relative="1" as="geometry">
            <mxPoint x="610" y="520" as="sourcePoint" />
            <mxPoint x="770" y="520" as="targetPoint" />
          </mxGeometry>
        </mxCell>
        <mxCell id="RWGStmXl-JUjxSm2xOCw-27" value="id" style="ellipse;whiteSpace=wrap;html=1;align=center;fontStyle=5;fillColor=#e0e0e0;strokeColor=#666666;fontColor=#333333;rounded=1;fontFamily=Comic Sans MS;" vertex="1" parent="1">
          <mxGeometry x="330" y="585" width="80" height="30" as="geometry" />
        </mxCell>
        <mxCell id="RWGStmXl-JUjxSm2xOCw-28" value="" style="endArrow=none;html=1;rounded=1;entryX=1;entryY=0;entryDx=0;entryDy=0;" edge="1" parent="1" target="RWGStmXl-JUjxSm2xOCw-27">
          <mxGeometry relative="1" as="geometry">
            <mxPoint x="470" y="570" as="sourcePoint" />
            <mxPoint x="770" y="520" as="targetPoint" />
          </mxGeometry>
        </mxCell>
        <mxCell id="RWGStmXl-JUjxSm2xOCw-29" value="" style="endArrow=none;html=1;rounded=1;exitX=0.5;exitY=0;exitDx=0;exitDy=0;entryX=0.25;entryY=1;entryDx=0;entryDy=0;" edge="1" parent="1" source="RWGStmXl-JUjxSm2xOCw-16" target="RWGStmXl-JUjxSm2xOCw-3">
          <mxGeometry relative="1" as="geometry">
            <mxPoint x="610" y="520" as="sourcePoint" />
            <mxPoint x="770" y="520" as="targetPoint" />
            <Array as="points" />
          </mxGeometry>
        </mxCell>
        <mxCell id="RWGStmXl-JUjxSm2xOCw-30" value="" style="endArrow=none;html=1;rounded=1;exitX=0.5;exitY=0;exitDx=0;exitDy=0;entryX=0.5;entryY=1;entryDx=0;entryDy=0;" edge="1" parent="1" source="RWGStmXl-JUjxSm2xOCw-18" target="RWGStmXl-JUjxSm2xOCw-3">
          <mxGeometry relative="1" as="geometry">
            <mxPoint x="610" y="520" as="sourcePoint" />
            <mxPoint x="770" y="520" as="targetPoint" />
          </mxGeometry>
        </mxCell>
        <mxCell id="RWGStmXl-JUjxSm2xOCw-31" value="" style="endArrow=none;html=1;rounded=1;exitX=0.5;exitY=0;exitDx=0;exitDy=0;" edge="1" parent="1" source="RWGStmXl-JUjxSm2xOCw-9" target="RWGStmXl-JUjxSm2xOCw-1">
          <mxGeometry relative="1" as="geometry">
            <mxPoint x="540" y="530" as="sourcePoint" />
            <mxPoint x="700" y="530" as="targetPoint" />
          </mxGeometry>
        </mxCell>
        <mxCell id="RWGStmXl-JUjxSm2xOCw-32" value="" style="endArrow=none;html=1;rounded=1;exitX=0.5;exitY=1;exitDx=0;exitDy=0;" edge="1" parent="1" source="RWGStmXl-JUjxSm2xOCw-4" target="RWGStmXl-JUjxSm2xOCw-1">
          <mxGeometry relative="1" as="geometry">
            <mxPoint x="540" y="530" as="sourcePoint" />
            <mxPoint x="700" y="530" as="targetPoint" />
          </mxGeometry>
        </mxCell>
        <mxCell id="RWGStmXl-JUjxSm2xOCw-33" value="" style="endArrow=none;html=1;rounded=1;exitX=1;exitY=1;exitDx=0;exitDy=0;entryX=0;entryY=0.25;entryDx=0;entryDy=0;" edge="1" parent="1" source="RWGStmXl-JUjxSm2xOCw-7" target="RWGStmXl-JUjxSm2xOCw-1">
          <mxGeometry relative="1" as="geometry">
            <mxPoint x="540" y="530" as="sourcePoint" />
            <mxPoint x="700" y="530" as="targetPoint" />
          </mxGeometry>
        </mxCell>
        <mxCell id="RWGStmXl-JUjxSm2xOCw-34" value="" style="endArrow=none;html=1;rounded=1;exitX=1;exitY=0.5;exitDx=0;exitDy=0;" edge="1" parent="1" source="RWGStmXl-JUjxSm2xOCw-5">
          <mxGeometry relative="1" as="geometry">
            <mxPoint x="380" y="530" as="sourcePoint" />
            <mxPoint x="280" y="300" as="targetPoint" />
          </mxGeometry>
        </mxCell>
        <mxCell id="RWGStmXl-JUjxSm2xOCw-35" value="" style="endArrow=none;html=1;rounded=1;exitX=1;exitY=0.5;exitDx=0;exitDy=0;entryX=0.25;entryY=1;entryDx=0;entryDy=0;" edge="1" parent="1" source="RWGStmXl-JUjxSm2xOCw-6" target="RWGStmXl-JUjxSm2xOCw-1">
          <mxGeometry relative="1" as="geometry">
            <mxPoint x="380" y="530" as="sourcePoint" />
            <mxPoint x="540" y="530" as="targetPoint" />
          </mxGeometry>
        </mxCell>
        <mxCell id="RWGStmXl-JUjxSm2xOCw-36" value="" style="endArrow=none;html=1;rounded=1;exitX=1;exitY=0;exitDx=0;exitDy=0;entryX=0;entryY=0.75;entryDx=0;entryDy=0;" edge="1" parent="1" source="RWGStmXl-JUjxSm2xOCw-8" target="RWGStmXl-JUjxSm2xOCw-1">
          <mxGeometry relative="1" as="geometry">
            <mxPoint x="380" y="530" as="sourcePoint" />
            <mxPoint x="200" y="340" as="targetPoint" />
          </mxGeometry>
        </mxCell>
        <mxCell id="RWGStmXl-JUjxSm2xOCw-37" value="" style="endArrow=none;html=1;rounded=1;entryX=0.11;entryY=1.075;entryDx=0;entryDy=0;entryPerimeter=0;exitX=0.36;exitY=0;exitDx=0;exitDy=0;exitPerimeter=0;" edge="1" parent="1" source="RWGStmXl-JUjxSm2xOCw-12" target="RWGStmXl-JUjxSm2xOCw-2">
          <mxGeometry relative="1" as="geometry">
            <mxPoint x="950" y="490" as="sourcePoint" />
            <mxPoint x="610" y="520" as="targetPoint" />
          </mxGeometry>
        </mxCell>
        <mxCell id="RWGStmXl-JUjxSm2xOCw-38" value="" style="endArrow=none;html=1;rounded=1;exitX=0.5;exitY=1;exitDx=0;exitDy=0;entryX=0.5;entryY=0;entryDx=0;entryDy=0;" edge="1" parent="1" source="RWGStmXl-JUjxSm2xOCw-11" target="RWGStmXl-JUjxSm2xOCw-2">
          <mxGeometry relative="1" as="geometry">
            <mxPoint x="450" y="520" as="sourcePoint" />
            <mxPoint x="790" y="280" as="targetPoint" />
          </mxGeometry>
        </mxCell>
        <mxCell id="RWGStmXl-JUjxSm2xOCw-39" value="" style="endArrow=none;html=1;rounded=1;exitX=0.36;exitY=0.975;exitDx=0;exitDy=0;entryX=0;entryY=0;entryDx=0;entryDy=0;exitPerimeter=0;" edge="1" parent="1" source="RWGStmXl-JUjxSm2xOCw-14" target="RWGStmXl-JUjxSm2xOCw-2">
          <mxGeometry relative="1" as="geometry">
            <mxPoint x="450" y="520" as="sourcePoint" />
            <mxPoint x="810" y="290" as="targetPoint" />
          </mxGeometry>
        </mxCell>
        <mxCell id="RWGStmXl-JUjxSm2xOCw-40" value="" style="endArrow=none;html=1;rounded=1;entryX=0;entryY=1;entryDx=0;entryDy=0;exitX=1;exitY=0.25;exitDx=0;exitDy=0;" edge="1" parent="1" source="RWGStmXl-JUjxSm2xOCw-2" target="RWGStmXl-JUjxSm2xOCw-15">
          <mxGeometry relative="1" as="geometry">
            <mxPoint x="450" y="520" as="sourcePoint" />
            <mxPoint x="610" y="520" as="targetPoint" />
          </mxGeometry>
        </mxCell>
        <mxCell id="RWGStmXl-JUjxSm2xOCw-41" value="" style="endArrow=none;html=1;rounded=1;entryX=0.34;entryY=-0.025;entryDx=0;entryDy=0;entryPerimeter=0;exitX=0.75;exitY=1;exitDx=0;exitDy=0;" edge="1" parent="1" source="RWGStmXl-JUjxSm2xOCw-2" target="RWGStmXl-JUjxSm2xOCw-10">
          <mxGeometry relative="1" as="geometry">
            <mxPoint x="450" y="520" as="sourcePoint" />
            <mxPoint x="610" y="520" as="targetPoint" />
          </mxGeometry>
        </mxCell>
        <mxCell id="RWGStmXl-JUjxSm2xOCw-42" value="" style="endArrow=none;html=1;rounded=1;entryX=0;entryY=0.5;entryDx=0;entryDy=0;exitX=1;exitY=1;exitDx=0;exitDy=0;" edge="1" parent="1" source="RWGStmXl-JUjxSm2xOCw-2" target="RWGStmXl-JUjxSm2xOCw-13">
          <mxGeometry relative="1" as="geometry">
            <mxPoint x="450" y="520" as="sourcePoint" />
            <mxPoint x="610" y="520" as="targetPoint" />
          </mxGeometry>
        </mxCell>
        <mxCell id="RWGStmXl-JUjxSm2xOCw-43" value="Volumenes" style="whiteSpace=wrap;html=1;align=center;shadow=1;rounded=1;labelBorderColor=none;labelBackgroundColor=none;fontSize=14;fontFamily=Comic Sans MS;fontStyle=1" vertex="1" parent="1">
          <mxGeometry x="350" y="150" width="100" height="40" as="geometry" />
        </mxCell>
        <mxCell id="RWGStmXl-JUjxSm2xOCw-44" value="" style="endArrow=none;html=1;rounded=1;exitX=1;exitY=0.425;exitDx=0;exitDy=0;exitPerimeter=0;" edge="1" parent="1" source="RWGStmXl-JUjxSm2xOCw-43" target="RWGStmXl-JUjxSm2xOCw-17">
          <mxGeometry relative="1" as="geometry">
            <mxPoint x="450" y="520" as="sourcePoint" />
            <mxPoint x="610" y="520" as="targetPoint" />
          </mxGeometry>
        </mxCell>
        <mxCell id="RWGStmXl-JUjxSm2xOCw-45" value="ISBN" style="ellipse;whiteSpace=wrap;html=1;align=center;fontStyle=5;fillColor=#e0e0e0;fontColor=#333333;strokeColor=#666666;rounded=1;fontFamily=Comic Sans MS;" vertex="1" parent="1">
          <mxGeometry x="330" y="90" width="100" height="40" as="geometry" />
        </mxCell>
        <mxCell id="RWGStmXl-JUjxSm2xOCw-46" value="" style="endArrow=none;html=1;rounded=1;exitX=0.5;exitY=1;exitDx=0;exitDy=0;entryX=0.39;entryY=-0.025;entryDx=0;entryDy=0;entryPerimeter=0;" edge="1" parent="1" source="RWGStmXl-JUjxSm2xOCw-45" target="RWGStmXl-JUjxSm2xOCw-43">
          <mxGeometry relative="1" as="geometry">
            <mxPoint x="450" y="390" as="sourcePoint" />
            <mxPoint x="610" y="390" as="targetPoint" />
          </mxGeometry>
        </mxCell>
        <mxCell id="RWGStmXl-JUjxSm2xOCw-47" value="Compuesto" style="shape=rhombus;perimeter=rhombusPerimeter;whiteSpace=wrap;html=1;align=center;fillColor=#f6f1e5;strokeColor=#d6b656;fontStyle=2;rounded=1;" vertex="1" parent="1">
          <mxGeometry x="520" y="260" width="120" height="60" as="geometry" />
        </mxCell>
        <mxCell id="RWGStmXl-JUjxSm2xOCw-48" value="" style="endArrow=none;html=1;rounded=1;exitX=0.763;exitY=0.967;exitDx=0;exitDy=0;exitPerimeter=0;entryX=0.5;entryY=0;entryDx=0;entryDy=0;" edge="1" parent="1" source="RWGStmXl-JUjxSm2xOCw-51" target="RWGStmXl-JUjxSm2xOCw-47">
          <mxGeometry relative="1" as="geometry">
            <mxPoint x="542.02" y="260" as="sourcePoint" />
            <mxPoint x="539.0769549027718" y="301.0384774513859" as="targetPoint" />
          </mxGeometry>
        </mxCell>
        <mxCell id="RWGStmXl-JUjxSm2xOCw-49" value="" style="endArrow=none;html=1;rounded=1;exitX=1;exitY=0.5;exitDx=0;exitDy=0;" edge="1" parent="1" source="RWGStmXl-JUjxSm2xOCw-53" target="RWGStmXl-JUjxSm2xOCw-2">
          <mxGeometry relative="1" as="geometry">
            <mxPoint x="450" y="390" as="sourcePoint" />
            <mxPoint x="610" y="390" as="targetPoint" />
          </mxGeometry>
        </mxCell>
        <mxCell id="RWGStmXl-JUjxSm2xOCw-50" value="" style="endArrow=none;html=1;rounded=1;exitX=0.5;exitY=1;exitDx=0;exitDy=0;" edge="1" parent="1" source="RWGStmXl-JUjxSm2xOCw-43" target="RWGStmXl-JUjxSm2xOCw-51">
          <mxGeometry relative="1" as="geometry">
            <mxPoint x="600" y="210" as="sourcePoint" />
            <mxPoint x="540" y="300" as="targetPoint" />
          </mxGeometry>
        </mxCell>
        <mxCell id="RWGStmXl-JUjxSm2xOCw-51" value="0,1" style="text;strokeColor=none;fillColor=none;spacingLeft=4;spacingRight=4;overflow=hidden;rotatable=0;points=[[0,0.5],[1,0.5]];portConstraint=eastwest;fontSize=12;whiteSpace=wrap;html=1;rounded=1;" vertex="1" parent="1">
          <mxGeometry x="450" y="200" width="40" height="30" as="geometry" />
        </mxCell>
        <mxCell id="RWGStmXl-JUjxSm2xOCw-52" value="" style="endArrow=none;html=1;rounded=1;exitX=1;exitY=0.5;exitDx=0;exitDy=0;" edge="1" parent="1" source="RWGStmXl-JUjxSm2xOCw-47" target="RWGStmXl-JUjxSm2xOCw-53">
          <mxGeometry relative="1" as="geometry">
            <mxPoint x="600" y="330" as="sourcePoint" />
            <mxPoint x="750" y="315" as="targetPoint" />
          </mxGeometry>
        </mxCell>
        <mxCell id="RWGStmXl-JUjxSm2xOCw-53" value="N,1" style="text;strokeColor=none;fillColor=none;spacingLeft=4;spacingRight=4;overflow=hidden;rotatable=0;points=[[0,0.5],[1,0.5]];portConstraint=eastwest;fontSize=12;whiteSpace=wrap;html=1;rounded=1;" vertex="1" parent="1">
          <mxGeometry x="704" y="290" width="40" height="30" as="geometry" />
        </mxCell>
        <mxCell id="RWGStmXl-JUjxSm2xOCw-54" value="" style="endArrow=none;html=1;rounded=1;entryX=-0.05;entryY=0.733;entryDx=0;entryDy=0;exitX=0.5;exitY=0;exitDx=0;exitDy=0;entryPerimeter=0;" edge="1" parent="1" source="RWGStmXl-JUjxSm2xOCw-22" target="RWGStmXl-JUjxSm2xOCw-55">
          <mxGeometry relative="1" as="geometry">
            <mxPoint x="657" y="415" as="sourcePoint" />
            <mxPoint x="750" y="330" as="targetPoint" />
          </mxGeometry>
        </mxCell>
        <mxCell id="RWGStmXl-JUjxSm2xOCw-55" value="1,1" style="text;strokeColor=none;fillColor=none;spacingLeft=4;spacingRight=4;overflow=hidden;rotatable=0;points=[[0,0.5],[1,0.5]];portConstraint=eastwest;fontSize=12;whiteSpace=wrap;html=1;rounded=1;" vertex="1" parent="1">
          <mxGeometry x="720" y="330" width="40" height="30" as="geometry" />
        </mxCell>
        <mxCell id="RWGStmXl-JUjxSm2xOCw-56" value="" style="endArrow=none;html=1;rounded=1;exitX=1;exitY=0.75;exitDx=0;exitDy=0;entryX=0.25;entryY=0.033;entryDx=0;entryDy=0;entryPerimeter=0;" edge="1" parent="1" source="RWGStmXl-JUjxSm2xOCw-1" target="RWGStmXl-JUjxSm2xOCw-57">
          <mxGeometry relative="1" as="geometry">
            <mxPoint x="300" y="330" as="sourcePoint" />
            <mxPoint x="400" y="425" as="targetPoint" />
          </mxGeometry>
        </mxCell>
        <mxCell id="RWGStmXl-JUjxSm2xOCw-57" value="1,1" style="text;strokeColor=none;fillColor=none;spacingLeft=4;spacingRight=4;overflow=hidden;rotatable=0;points=[[0,0.5],[1,0.5]];portConstraint=eastwest;fontSize=12;whiteSpace=wrap;html=1;rounded=1;" vertex="1" parent="1">
          <mxGeometry x="310" y="340" width="40" height="30" as="geometry" />
        </mxCell>
        <mxCell id="RWGStmXl-JUjxSm2xOCw-58" value="" style="endArrow=none;html=1;rounded=1;exitX=0.69;exitY=-0.025;exitDx=0;exitDy=0;exitPerimeter=0;entryX=0.025;entryY=1;entryDx=0;entryDy=0;entryPerimeter=0;" edge="1" parent="1" source="RWGStmXl-JUjxSm2xOCw-3" target="RWGStmXl-JUjxSm2xOCw-59">
          <mxGeometry relative="1" as="geometry">
            <mxPoint x="536" y="524" as="sourcePoint" />
            <mxPoint x="627" y="460" as="targetPoint" />
          </mxGeometry>
        </mxCell>
        <mxCell id="RWGStmXl-JUjxSm2xOCw-59" value="0,N" style="text;strokeColor=none;fillColor=none;spacingLeft=4;spacingRight=4;overflow=hidden;rotatable=0;points=[[0,0.5],[1,0.5]];portConstraint=eastwest;fontSize=12;whiteSpace=wrap;html=1;rounded=1;" vertex="1" parent="1">
          <mxGeometry x="560" y="480" width="40" height="30" as="geometry" />
        </mxCell>
        <mxCell id="RWGStmXl-JUjxSm2xOCw-60" value="" style="endArrow=none;html=1;rounded=1;exitX=0.5;exitY=1;exitDx=0;exitDy=0;entryX=0;entryY=0;entryDx=0;entryDy=0;entryPerimeter=0;" edge="1" parent="1" source="RWGStmXl-JUjxSm2xOCw-25" target="RWGStmXl-JUjxSm2xOCw-61">
          <mxGeometry relative="1" as="geometry">
            <mxPoint x="430" y="470" as="sourcePoint" />
            <mxPoint x="492" y="525" as="targetPoint" />
          </mxGeometry>
        </mxCell>
        <mxCell id="RWGStmXl-JUjxSm2xOCw-61" value="N,0" style="text;strokeColor=none;fillColor=none;spacingLeft=4;spacingRight=4;overflow=hidden;rotatable=0;points=[[0,0.5],[1,0.5]];portConstraint=eastwest;fontSize=12;whiteSpace=wrap;html=1;rounded=1;" vertex="1" parent="1">
          <mxGeometry x="460" y="490" width="40" height="30" as="geometry" />
        </mxCell>
        <mxCell id="RWGStmXl-JUjxSm2xOCw-62" style="edgeStyle=orthogonalEdgeStyle;rounded=0;orthogonalLoop=1;jettySize=auto;html=1;exitX=0.5;exitY=1;exitDx=0;exitDy=0;" edge="1" parent="1" source="RWGStmXl-JUjxSm2xOCw-19" target="RWGStmXl-JUjxSm2xOCw-19">
          <mxGeometry relative="1" as="geometry" />
        </mxCell>
      </root>
    </mxGraphModel>
  </diagram>
</mxfile>
